<mxfile host="app.diagrams.net" modified="2023-02-22T16:08:29.908Z" agent="5.0 (Windows)" version="20.7.4" etag="lEmPNY2hw_z7ik8R2Dc8" type="github">
  <diagram id="PFW2gD3TLKGrZBGIH0hT" name="第 1 页">
    <mxGraphModel dx="1050" dy="538" grid="1" gridSize="10" guides="1" tooltips="1" connect="1" arrows="1" fold="1" page="1" pageScale="1" pageWidth="827" pageHeight="1169" math="0" shadow="0">
      <root>
        <mxCell id="0" />
        <mxCell id="1" parent="0" />
        <mxCell id="xufoQPks8u5blytaQ6nF-1" value="" style="rounded=1;whiteSpace=wrap;html=1;dashed=1;fillColor=#FFFFFF;strokeColor=#6c8ebf;" vertex="1" parent="1">
          <mxGeometry x="150" y="50" width="410" height="130" as="geometry" />
        </mxCell>
        <mxCell id="xufoQPks8u5blytaQ6nF-3" value="" style="rounded=1;whiteSpace=wrap;html=1;dashed=1;fillStyle=auto;fillColor=none;strokeColor=#b85450;" vertex="1" parent="1">
          <mxGeometry x="150" y="230" width="410" height="130" as="geometry" />
        </mxCell>
        <mxCell id="xufoQPks8u5blytaQ6nF-4" value="" style="rounded=1;whiteSpace=wrap;html=1;dashed=1;fillColor=none;strokeColor=#82b366;" vertex="1" parent="1">
          <mxGeometry x="150" y="400" width="410" height="130" as="geometry" />
        </mxCell>
        <mxCell id="xufoQPks8u5blytaQ6nF-5" value="" style="ellipse;shape=cloud;whiteSpace=wrap;html=1;dashed=1;fillStyle=auto;fillColor=#66FFFF;" vertex="1" parent="1">
          <mxGeometry x="180" y="60" width="90" height="80" as="geometry" />
        </mxCell>
        <mxCell id="xufoQPks8u5blytaQ6nF-7" value="" style="ellipse;shape=cloud;whiteSpace=wrap;html=1;dashed=1;fillStyle=auto;fillColor=#66FFFF;" vertex="1" parent="1">
          <mxGeometry x="400" y="60" width="90" height="80" as="geometry" />
        </mxCell>
      </root>
    </mxGraphModel>
  </diagram>
</mxfile>
